<svg viewBox="0 0 379 720" fill="none" xmlns="http://www.w3.org/2000/svg" preserveAspectRatio="none">
    <path fill-rule="evenodd" clip-rule="evenodd" d="M354.986 279.832C352.722 283.962 350.309 287.998 347.753 291.933H30.3985C27.8425 287.998 25.429 283.962 23.1651 279.832H354.986ZM362.419 264.706C372.538 241.546 378.151 215.966 378.151 189.076C378.151 84.652 293.499 0 189.076 0C84.652 0 0 84.652 0 189.076C0 215.966 5.61356 241.546 15.7328 264.706H362.419ZM51.8608 319.16C48.1801 315.278 44.6623 311.241 41.3183 307.059H336.833C333.489 311.241 329.971 315.278 326.29 319.16H51.8608ZM67.9748 334.286C73.1387 338.597 78.536 342.638 84.1451 346.387H294.006C299.615 342.638 305.013 338.597 310.176 334.286H67.9748ZM189.076 378.151C161.393 378.151 135.1 372.202 111.405 361.513H266.746C243.051 372.202 216.758 378.151 189.076 378.151Z" fill="url(#paint0_linear_121_22)"/>
    <path d="M84.1695 346.387H293.954L378.151 720H0L84.1695 346.387Z" fill="#091022"/>
    <g filter="url(#filter0_ddd_121_22)">
        <path fill-rule="evenodd" clip-rule="evenodd" d="M182.804 369.076L183.181 346.387H194.351L194.765 369.076H182.804ZM182.427 391.765L181.171 467.395H196.562L195.18 391.765H182.427ZM178.658 618.655L180.543 505.21H197.252L199.325 618.655H178.658ZM177.779 671.597L176.975 720H201.177L200.292 671.597H177.779Z" fill="#D4B0E6"/>
    </g>
    <defs>
        <filter id="filter0_ddd_121_22" x="146.975" y="316.387" width="84.2017" height="433.613" filterUnits="userSpaceOnUse" color-interpolation-filters="sRGB">
            <feFlood flood-opacity="0" result="BackgroundImageFix"/>
            <feColorMatrix in="SourceAlpha" type="matrix" values="0 0 0 0 0 0 0 0 0 0 0 0 0 0 0 0 0 0 127 0" result="hardAlpha"/>
            <feOffset/>
            <feGaussianBlur stdDeviation="15"/>
            <feComposite in2="hardAlpha" operator="out"/>
            <feColorMatrix type="matrix" values="0 0 0 0 0.503994 0 0 0 0 0.265139 0 0 0 0 0.691667 0 0 0 1 0"/>
            <feBlend mode="normal" in2="BackgroundImageFix" result="effect1_dropShadow_121_22"/>
            <feColorMatrix in="SourceAlpha" type="matrix" values="0 0 0 0 0 0 0 0 0 0 0 0 0 0 0 0 0 0 127 0" result="hardAlpha"/>
            <feOffset/>
            <feGaussianBlur stdDeviation="2.5"/>
            <feComposite in2="hardAlpha" operator="out"/>
            <feColorMatrix type="matrix" values="0 0 0 0 0.793474 0 0 0 0 0.684028 0 0 0 0 0.820833 0 0 0 0.75 0"/>
            <feBlend mode="normal" in2="effect1_dropShadow_121_22" result="effect2_dropShadow_121_22"/>
            <feColorMatrix in="SourceAlpha" type="matrix" values="0 0 0 0 0 0 0 0 0 0 0 0 0 0 0 0 0 0 127 0" result="hardAlpha"/>
            <feOffset/>
            <feGaussianBlur stdDeviation="10"/>
            <feComposite in2="hardAlpha" operator="out"/>
            <feColorMatrix type="matrix" values="0 0 0 0 0.21 0 0 0 0 0.7646 0 0 0 0 0.8 0 0 0 0.25 0"/>
            <feBlend mode="normal" in2="effect2_dropShadow_121_22" result="effect3_dropShadow_121_22"/>
            <feBlend mode="normal" in="SourceGraphic" in2="effect3_dropShadow_121_22" result="shape"/>
        </filter>
        <linearGradient id="paint0_linear_121_22" x1="252.605" y1="9.07563" x2="207.227" y2="460.588" gradientUnits="userSpaceOnUse">
            <stop stop-color="#FF9900"/>
            <stop offset="0.456722" stop-color="#E81AAE" stop-opacity="0.67"/>
            <stop offset="1" stop-color="#E613B8" stop-opacity="0.78"/>
        </linearGradient>
    </defs>
</svg>
