<svg width="250" height="363" viewBox="0 0 250 363" fill="none" xmlns="http://www.w3.org/2000/svg">
    <!-- Tree sourced from https://www.freevector.com/palm-tree-silhouette%2D%2D20307# -->
    <mask id="mask0_138_2" style="mask-type:alpha" maskUnits="userSpaceOnUse" x="0" y="0" width="250" height="363">
        <path d="M131.765 100.012L126.876 95.5408L123.124 109.502L116.53 106.947C116.303 109.685 115.962 112.696 115.735 115.981C116.076 118.171 116.303 119.723 116.076 119.358C115.962 119.266 115.848 119.175 115.507 119.084C111.073 167.904 102.547 267.551 100.955 332.887C106.526 332.248 112.324 331.883 118.236 331.883C125.057 331.883 131.765 332.339 138.017 333.161C134.72 272.569 128.581 140.072 131.765 100.012Z" fill="#8C4E21"/>
        <path d="M187.472 89.8831L200.432 85.6855L211.346 91.9819L223.738 87.7843L236.13 94.4457L250 89.0618C194.861 68.3477 161.323 70.8115 142.906 76.5603C143.02 74.7353 143.133 73.2753 143.247 72.819C143.474 71.8152 151.205 73.184 153.251 72.819C155.184 72.454 154.843 61.1388 154.843 61.1388C154.843 61.1388 165.871 61.3213 166.553 61.1388C167.349 60.9563 172.01 47.9073 172.01 47.9073L184.97 48.546L190.768 41.3371L202.251 44.5309L211.801 27.8318C172.237 31.3906 150.409 45.7172 138.472 59.405C136.653 56.3024 133.356 52.2873 133.356 52.2873C133.356 52.2873 142.906 47.9072 143.474 47.3597C144.043 46.9035 139.609 33.7632 139.609 33.7632L151.091 28.8356L151.432 20.2579L163.256 18.2504L160.641 0C120.509 24.7293 116.189 52.3786 118.577 69.8989C108.458 54.2949 86.6303 34.767 39.3361 30.4781L48.8859 47.1772L60.3683 43.9834L66.1664 51.1923L79.1268 50.5535C79.1268 50.5535 83.9018 63.6026 84.5839 63.7851C85.3797 63.9676 96.2938 63.7851 96.2938 63.7851C96.2938 63.7851 95.839 75.009 97.8854 75.4653C99.8181 75.8303 107.549 74.4615 107.89 75.4653C108.004 75.8303 108.004 76.9253 108.231 78.3854C90.0409 72.454 56.2756 69.3514 0 90.5218L13.87 95.9057L26.2619 89.2444L38.6539 93.4419L49.568 87.1456L62.5284 91.3431L76.6258 84.8643L82.3102 93.3507L90.6094 87.9668C90.6094 87.9668 93.9063 95.997 94.2474 95.8145C58.322 121.183 62.8695 184.694 62.8695 184.694L85.0386 156.406L71.1687 150.383C71.1687 150.383 89.5862 146.733 90.723 146.733C91.8599 146.733 78.6721 141.623 78.6721 141.623C78.6721 141.623 96.2938 138.612 97.4307 138.612C98.5675 138.612 88.4493 131.403 88.4493 131.403H107.208L101.523 115.89C101.523 115.89 112.779 117.989 115.621 118.992C115.962 119.084 116.075 119.175 116.189 119.266C116.417 119.54 116.303 117.989 115.848 115.89C115.166 111.875 113.915 105.761 113.915 105.761L116.758 106.856L123.352 109.411L127.103 95.4495L131.992 99.9208L140.291 107.495L146.317 100.651C146.317 100.651 152.569 114.43 152.683 113.335C152.797 112.24 163.37 104.575 163.37 104.575L167.917 120.27L184.288 112.879C184.288 112.879 179.854 123.19 180.878 122.734C181.901 122.278 199.068 117.989 199.068 117.989C199.068 117.989 190.768 127.661 191.678 127.205C192.701 126.749 210.891 122.643 210.891 122.643L202.478 133.319L239.086 149.288C239.086 149.288 210.664 102.658 170.759 87.7843L173.715 83.2217L187.472 89.8831ZM131.878 68.2564C131.423 67.6177 131.196 67.1614 131.082 66.9789C130.855 66.5226 132.219 65.9751 133.811 65.3364C133.129 66.2489 132.447 67.2527 131.878 68.2564Z" fill="#A2CD3A"/>
        <path d="M137.79 333.343C131.537 332.522 124.943 332.066 118.008 332.066C111.983 332.066 106.185 332.431 100.728 333.069C71.1689 336.537 49.3408 348.582 49.3408 363H100.5H139.268H186.676C186.79 348.947 166.098 337.084 137.79 333.343Z" fill="#AD8B66"/>
    </mask>
    <g mask="url(#mask0_138_2)">
        <rect y="-0.999634" width="250" height="363.867" fill="url(#paint0_linear_138_2)"/>
    </g>
    <defs>
        <linearGradient id="paint0_linear_138_2" x1="125" y1="-0.999634" x2="125" y2="362.868" gradientUnits="userSpaceOnUse">
            <stop offset="0.0260417" stop-color="#B45739"/>
            <stop offset="0.276042" stop-color="#5B186C"/>
            <stop offset="1" stop-color="#6C185F"/>
        </linearGradient>
    </defs>
</svg>
