<svg width="250" height="363" viewBox="0 0 250 363" fill="none" xmlns="http://www.w3.org/2000/svg">
    <!-- Tree sourced from https://www.freevector.com/palm-tree-silhouette%2D%2D20307# --> 
    <mask id="mask0_140_3" style="mask-type:alpha" maskUnits="userSpaceOnUse" x="0" y="0" width="250" height="363">
        <path d="M169.152 209.584C169.337 209.876 169.521 210.168 169.705 210.46C169.889 210.558 169.981 210.655 170.165 210.655C170.165 210.558 170.165 210.558 170.073 210.46C170.073 210.46 170.257 210.558 170.534 210.85C170.626 210.947 170.718 210.947 170.81 211.044C170.349 210.363 169.981 209.584 169.521 208.903C169.429 209.195 169.337 209.389 169.152 209.584Z" fill="#C25E30"/>
        <path d="M175.138 211.726L174.402 211.142C173.941 211.336 173.389 211.628 172.928 211.823C172.928 211.823 173.205 211.336 173.665 210.558L173.297 210.266C173.113 210.46 172.928 210.655 172.744 210.947C172.744 210.947 172.744 210.558 172.836 209.974H172.744C172.192 210.752 171.916 211.142 171.916 211.142C172.008 210.558 172.008 209.974 172.008 209.487L171.271 208.903C171.271 210.266 171.271 211.239 171.271 211.628C171.731 212.115 172.376 212.797 173.113 213.575C173.757 213.77 174.678 213.965 175.783 214.354C175.967 214.159 176.059 213.867 176.243 213.77C175.046 213.478 173.849 213.089 172.652 212.894C172.56 212.699 173.481 212.31 175.138 211.726Z" fill="#C25E30"/>
        <path d="M170.258 211.336C170.258 211.434 170.35 211.434 170.35 211.531C170.35 211.434 170.35 211.434 170.258 211.336Z" fill="#C25E30"/>
        <path d="M170.902 211.239C170.994 211.336 170.902 211.336 170.902 211.239C170.994 211.336 170.994 211.336 170.902 211.239Z" fill="#C25E30"/>
        <path d="M168.692 211.531C168.324 211.531 168.048 211.628 167.679 211.628C157.55 226.23 119.153 282.982 104.788 330.292C109.945 330.682 114.917 331.46 119.613 332.628C121.915 316.567 126.98 293.885 137.753 274.903C150.921 251.735 164.549 230.805 171.639 220.195C171.547 217.859 171.178 215.23 170.534 212.407C169.981 212.115 169.337 211.823 168.692 211.531Z" fill="#C25E30"/>
        <path d="M220.258 214.257C201.657 204.035 181.952 209.292 175.046 211.726C173.388 212.31 172.468 212.699 172.468 212.699C173.757 212.991 174.954 213.283 176.059 213.575C184.622 216.009 190.515 220.195 193.922 223.31C186.832 218.248 179.834 215.522 175.598 214.257C174.493 213.867 173.573 213.673 172.928 213.478C172.191 212.699 171.639 212.018 171.086 211.531C171.086 211.142 171.178 210.168 171.086 208.805C170.994 201.797 169.429 183.204 157.274 168.407L157.182 168.602L156.998 167.92C155.985 166.752 154.972 165.584 153.867 164.513C152.394 163.053 151.013 161.788 149.631 160.522C149.263 161.885 149.079 162.761 149.079 162.372C149.079 162.08 148.342 160.522 147.237 158.478C144.291 156.044 141.528 154.195 138.95 152.637L138.398 156.142C138.398 156.142 138.121 154.389 137.2 151.664C130.847 148.159 125.875 146.991 123.112 146.505C123.112 147.089 123.112 147.77 123.112 148.354L133.057 156.239C133.057 156.239 125.23 158.673 126.335 158.478C127.44 158.283 142.541 162.566 142.541 162.566C142.541 162.566 133.609 164.416 134.714 164.805C135.819 165.097 148.434 170.646 148.434 170.646L142.173 173.469L154.604 180.381C154.604 180.381 145.212 181.159 146.04 181.354C146.869 181.549 158.471 191.089 158.471 191.089L151.105 191.283C145.764 187.682 139.318 184.664 131.952 183.301C128.545 182.717 125.322 182.328 122.375 182.133C122.283 185.735 122.099 189.531 121.915 193.425C125.967 192.549 130.479 191.673 130.479 191.673L126.795 197.611L140.792 196.151C140.792 196.151 133.425 202.283 134.162 201.894C134.898 201.602 149.631 202.77 149.631 202.77L147.329 204.425C142.817 204.328 137.937 205.009 132.965 206.859C128.085 208.708 124.125 210.752 120.902 212.797C120.718 216.301 120.442 219.805 120.166 223.31C122.652 220.195 127.348 214.743 127.348 214.743C127.348 214.743 125.322 222.142 125.967 221.46C126.611 220.779 134.991 213.283 134.991 213.283L134.622 219.027L143.83 212.212C143.83 212.212 140.884 219.513 141.344 219.027C141.805 218.54 152.486 213.186 152.486 213.186L149.447 219.903C149.447 219.903 155.617 213.381 167.587 211.628C167.956 211.628 168.232 211.531 168.6 211.531C169.245 211.823 169.889 212.115 170.534 212.407C171.178 215.23 171.547 217.859 171.639 220.195C172.099 229.248 169.521 234.894 169.521 234.894L174.493 229.637C174.493 229.637 173.296 242.097 173.02 242.682C172.652 243.266 178.269 237.912 178.269 237.912L175.23 249.398L180.202 247.062C180.202 247.062 176.335 257.965 175.874 258.743C175.414 259.62 181.399 255.142 181.399 255.142C181.399 255.142 175.506 266.823 174.77 267.407C174.033 267.991 179.65 264.487 179.65 264.487L178.177 277.726C178.177 277.726 186.464 269.062 186.556 247.062C186.556 243.947 186.28 241.027 185.727 238.301L187.569 231.292C187.569 231.292 193.462 245.602 193.462 246.478C193.462 247.354 196.409 237.912 196.409 237.912L199.723 252.319L203.775 246.575C203.775 246.575 205.801 260.885 205.801 262.151C205.801 263.319 209.76 254.655 209.76 254.655C209.76 254.655 210.037 271.106 209.576 272.274C209.116 273.345 213.259 265.947 213.259 265.947L219.337 281.23C219.337 281.23 223.388 266.434 210.773 242.389C207.09 235.381 202.302 230.027 197.329 225.938L195.119 218.54C195.119 218.54 207.458 227.009 207.919 227.788C208.379 228.469 205.893 218.929 205.893 218.929L216.206 228.956L216.666 221.85C216.666 221.85 225.782 232.655 226.427 233.628C227.072 234.602 225.782 225.159 225.782 225.159C225.782 225.159 234.622 238.69 234.806 239.956C234.99 241.124 234.53 232.558 234.53 232.558L247.606 241.805C247.698 241.708 243.37 227.009 220.258 214.257ZM170.626 210.947C170.35 210.655 170.166 210.558 170.166 210.558C170.166 210.655 170.165 210.655 170.258 210.752C170.165 210.655 169.981 210.558 169.797 210.558C169.613 210.266 169.429 209.974 169.245 209.681C166.759 205.982 161.878 199.655 154.696 194.009C158.655 196.443 164.549 201.115 169.613 209.097C170.073 209.779 170.442 210.46 170.902 211.239C170.81 211.044 170.718 211.044 170.626 210.947ZM170.902 211.239C170.994 211.336 170.994 211.336 170.902 211.239C170.994 211.336 170.902 211.336 170.902 211.239Z" fill="#0D7741"/>
        <path d="M225.046 154.876C225.875 155.85 226.519 156.823 227.164 157.796L232.504 154.876C232.504 154.876 229.834 154.292 225.046 154.876Z" fill="#0D7741"/>
        <path d="M212.339 183.301C203.407 184.761 195.948 188.558 190.055 193.035L188.306 192.646C188.306 192.646 201.289 185.15 202.026 185.15C202.854 185.053 193.738 182.814 193.738 182.814L206.998 178.044L201.289 174.248C201.289 174.248 214.641 170.841 215.746 170.743C216.851 170.646 208.379 167.239 208.379 167.239C208.379 167.239 223.849 165.487 224.954 165.876C226.059 166.265 218.692 162.566 218.692 162.566L222.283 160.522L216.666 156.823C215.377 157.212 214.088 157.699 212.707 158.283C212.983 161.885 213.259 166.168 213.075 165.097C212.983 164.513 211.602 162.372 209.852 159.549C205.893 161.398 201.565 163.929 196.777 167.239C191.805 170.841 187.845 175.027 184.714 179.504C185.451 174.15 185.451 168.31 184.346 162.274C183.149 155.363 181.399 149.717 179.558 145.044L170.35 136.575L172.099 142.513C172.099 142.513 171.455 142.319 170.626 141.929C171.455 144.947 172.191 147.965 172.191 148.257C174.401 151.08 176.243 153.513 176.243 153.513C176.243 153.513 168.048 149.522 168.692 150.398C169.429 151.274 176.519 163.735 176.519 163.735L174.217 163.15C186.924 185.832 184.346 200.628 184.346 200.628L175.23 183.106C175.23 183.106 171.178 192.549 171.639 191.186C171.823 190.699 171.639 188.266 171.363 185.15L166.022 181.257C166.022 181.257 173.296 191.673 172.099 209.389C172.099 209.973 172.007 210.46 172.007 211.044C172.007 211.044 172.283 210.655 172.836 209.876L172.928 209.779C172.928 209.876 172.928 209.876 172.928 209.876C172.836 210.46 172.836 210.85 172.836 210.85C173.02 210.655 173.204 210.363 173.388 210.168C174.401 208.903 175.414 207.832 176.427 206.761C175.23 208.319 174.401 209.584 173.849 210.46C173.388 211.239 173.112 211.726 173.112 211.726C173.573 211.531 174.125 211.239 174.585 211.044C190.055 204.035 201.749 207.832 201.749 207.832L194.659 202.381C194.659 202.381 209.392 201.504 210.129 201.796C210.865 202.089 203.591 195.858 203.591 195.858L217.495 197.611L213.904 191.575C213.904 191.575 227.348 194.593 228.361 194.982C229.374 195.372 223.112 188.46 223.112 188.46C223.112 188.46 237.845 193.912 238.674 194.69C239.503 195.566 234.346 188.85 234.346 188.85L250 188.168C249.723 188.363 238.029 179.212 212.339 183.301Z" fill="#0D7741"/>
        <path d="M105.8 194.496C106.077 194.204 107.734 193.522 109.852 192.646C109.944 191.381 109.944 190.115 109.944 188.947C109.115 190.018 105.064 195.177 105.8 194.496Z" fill="#0D7741"/>
        <path d="M110.037 188.655C110.129 186.611 110.221 184.566 110.221 182.522C99.5395 183.885 94.4751 187.681 94.4751 187.681L110.037 188.655Z" fill="#0D7741"/>
        <path d="M169.245 171.23C169.153 171.522 169.061 171.717 168.969 172.106C169.337 173.177 169.797 174.832 170.35 176.681C170.074 174.637 169.89 172.788 169.798 171.522C169.613 171.425 169.429 171.327 169.245 171.23Z" fill="#0D7741"/>
        <path d="M118.232 124.894C118.232 124.894 118.14 124.115 118.14 122.655H118.048C117.588 123.531 117.403 123.92 117.403 123.92C117.403 123.531 117.311 123.044 117.311 122.655H116.575C116.575 124.018 116.483 124.894 116.483 124.894C116.114 124.115 115.654 123.434 115.286 122.655H113.904C115.47 124.894 116.206 126.257 116.206 126.257C114.457 125.478 112.707 124.699 111.05 124.018C111.05 124.31 111.05 124.699 111.05 125.186C112.707 125.77 113.996 126.354 114.917 126.743C116.391 126.451 117.68 126.159 118.693 126.062C118.969 125.575 119.705 124.407 120.902 122.752H119.521C119.061 123.336 118.6 124.115 118.232 124.894Z" fill="#DD6B37"/>
        <path d="M119.521 125.77C119.613 125.77 119.797 125.77 119.981 125.867C120.534 125.77 120.902 125.77 120.902 125.77C120.81 125.867 120.718 125.867 120.718 125.965C120.902 125.965 121.178 126.062 121.455 126.062C121.915 125.867 122.375 125.673 122.928 125.478C122.928 125.088 122.928 124.699 122.928 124.407C121.731 124.796 120.626 125.283 119.521 125.77Z" fill="#DD6B37"/>
        <path d="M119.152 125.965H119.244C119.244 125.965 119.244 125.867 119.152 125.965Z" fill="#DD6B37"/>
        <path d="M121.823 128.204C120.81 128.009 119.797 127.717 118.784 127.522C115.653 130.345 113.167 133.266 111.049 136.089C111.049 146.797 110.865 163.151 110.313 182.522C110.221 184.566 110.22 186.611 110.128 188.655C110.128 188.752 110.128 188.85 110.128 188.85C110.128 190.115 110.036 191.283 110.036 192.549C109.576 205.69 108.839 219.903 107.826 234.407C105.064 273.248 88.3052 311.31 77.5317 332.336C83.9774 330.779 90.9756 330 98.2499 330C99.9995 330 101.749 330.097 103.499 330.097C112.891 297.681 117.863 258.743 120.534 223.31C120.81 219.805 120.994 216.204 121.27 212.797C121.731 206.177 122.007 199.655 122.283 193.425C122.467 189.531 122.559 185.832 122.744 182.133C123.204 169.283 123.296 157.796 123.296 148.354C123.296 147.673 123.296 147.089 123.296 146.504C123.296 139.204 123.204 133.363 123.112 129.177C122.559 128.982 122.191 128.593 121.823 128.204Z" fill="#DD6B37"/>
        <path d="M119.797 126.743C119.889 126.743 119.982 126.646 120.074 126.646C120.074 126.646 119.982 126.646 119.982 126.549C119.889 126.549 119.797 126.646 119.797 126.743Z" fill="#DD6B37"/>
        <path d="M143.185 53.5398C136.832 59.9646 132.136 67.1681 128.545 74.3717C128.36 66 126.979 57.1416 123.756 48.1858C110.036 9.44248 90.0548 0 90.0548 0L100.736 22.292C100.736 22.292 88.6736 20.0531 90.331 20.5398C91.9885 21.0265 109.576 37.4779 109.576 37.4779C109.576 37.4779 96.4084 33.7787 97.6975 34.9469C98.9867 36.115 112.523 52.5664 112.523 52.5664L102.394 51.9823L114.732 70.0885C114.732 70.0885 101.657 64.5398 102.578 65.3186C103.499 66.0973 113.259 87.2212 113.259 87.2212L110.865 86.0531C107.182 75.1504 101.197 63.5664 91.436 53.5398C63.2593 24.823 41.436 25.3097 41.436 25.3097L60.1285 40.4956C60.1285 40.4956 48.3422 44 49.9996 43.7079C51.7491 43.4159 74.2169 50.3275 74.2169 50.3275C74.2169 50.3275 60.7731 52.9557 62.4305 53.4424C64.088 53.9292 82.9646 62.5929 82.9646 62.5929L73.5723 66.6814L92.0806 77.3894C92.0806 77.3894 77.9922 78.2655 79.1892 78.6549C80.3863 78.9469 97.6975 93.5487 97.6975 93.5487L84.4378 93.7434C84.4378 93.7434 101.841 99.8761 115.101 122.655C115.469 123.336 115.93 124.115 116.298 124.894C116.298 124.894 116.39 124.115 116.39 122.655C116.39 121.097 116.39 118.664 116.298 115.646C116.666 117.885 116.942 120.221 117.219 122.655C117.219 123.044 117.311 123.531 117.311 123.92C117.311 123.92 117.587 123.434 117.955 122.655C117.955 122.558 118.047 122.558 118.047 122.46C118.047 122.558 118.047 122.558 118.047 122.655C118.047 124.018 118.14 124.894 118.14 124.894C118.508 124.115 118.968 123.434 119.337 122.655C132.504 99.8761 149.999 93.7434 149.999 93.7434L136.74 93.5487C136.74 93.5487 154.051 78.9469 155.248 78.6549C156.445 78.3628 142.357 77.3894 142.357 77.3894L160.865 66.6814L151.473 62.5929C151.473 62.5929 170.441 53.9292 172.007 53.4424C173.664 52.9557 160.22 50.3275 160.22 50.3275C160.22 50.3275 182.78 43.4159 184.438 43.7079C186.187 44 174.309 40.4956 174.309 40.4956L193.001 25.3097C193.185 25.3097 171.362 24.823 143.185 53.5398Z" fill="#219D57"/>
        <path d="M178.453 84.3009C147.145 88.8761 127.348 113.407 120.81 122.752C119.613 124.407 118.877 125.673 118.6 126.062C117.587 126.257 116.298 126.451 114.825 126.743C113.904 126.354 112.523 125.77 110.958 125.186C104.788 122.947 93.9225 119.832 81.0312 119.54C87.8452 118.858 98.4345 119.15 110.958 124.018C112.615 124.699 114.365 125.381 116.114 126.257C116.114 126.257 115.285 124.894 113.812 122.655C107.366 113.31 87.4769 88.7788 56.1694 84.2036C17.4033 78.5576 0 92.6726 0 92.6726L23.5727 93.2567C23.5727 93.2567 16.0221 103.381 17.2191 102.115C18.4162 100.85 40.4235 92.2832 40.4235 92.2832C40.4235 92.2832 31.0313 102.796 32.5967 102.115C34.162 101.531 54.3277 96.6637 54.3277 96.6637L48.9871 105.814L69.8894 102.894C69.8894 102.894 59.0239 112.434 60.1289 111.947C61.2339 111.46 83.4253 112.434 83.4253 112.434L74.5855 119.443C65.1012 119.929 54.6961 122.071 44.4751 127.327C9.20814 145.239 2.11791 167.142 2.11791 167.142L22.0994 153.903C22.0994 153.903 21.0866 166.85 21.4549 165C21.8232 163.248 35.7274 143.292 35.7274 143.292C35.7274 143.292 33.4254 157.504 34.3462 156.044C35.267 154.584 49.6316 138.814 49.6316 138.814L50 149.62L65.93 135.018C65.93 135.018 61.8784 149.327 62.523 148.257C63.1675 147.186 82.2283 135.018 82.2283 135.018L78.7292 145.336C75.7826 148.257 72.9281 151.566 70.4419 155.363C52.394 182.425 55.4327 200.726 55.4327 200.726L64.5488 183.204C64.5488 183.204 68.6003 192.646 68.1399 191.283C67.6795 189.92 70.0736 170.159 70.0736 170.159C70.0736 170.159 73.6647 181.062 73.8489 179.602C74.0331 178.142 78.1767 161.301 78.1767 161.301L82.4124 168.699L88.1215 151.858C88.1215 151.858 90.5156 163.54 90.6076 162.469C90.6997 161.398 99.5395 145.142 99.5395 145.142L101.289 156.239C101.289 156.239 102.762 146.894 110.773 136.186C112.891 133.363 115.469 130.442 118.508 127.619C119.521 127.814 120.534 128.009 121.547 128.301C121.915 128.69 122.283 128.982 122.652 129.372C131.307 137.938 135.175 146.699 136.924 151.858C137.845 154.681 138.121 156.336 138.121 156.336L138.674 152.832L139.871 145.239C139.871 145.239 144.383 153.513 146.961 158.673C147.974 160.717 148.711 162.274 148.803 162.566C148.803 162.858 149.079 161.982 149.355 160.717C150.092 157.602 151.289 151.956 151.289 151.956L156.814 168.115L156.998 168.796L157.09 168.602L161.142 161.398C161.142 161.398 165.285 178.336 165.469 179.699C165.562 180.77 167.587 175.221 168.6 172.106C168.692 171.814 168.784 171.522 168.876 171.23C169.061 170.549 169.245 170.159 169.245 170.159C169.245 170.159 169.337 170.646 169.429 171.522C169.613 172.69 169.797 174.54 169.981 176.681C170.258 179.407 170.626 182.522 170.902 185.151C171.178 188.266 171.363 190.796 171.178 191.186C170.718 192.549 174.77 183.106 174.77 183.106L183.886 200.628C183.886 200.628 186.372 185.832 173.757 163.15C172.375 160.619 170.81 157.991 168.968 155.363C164.364 148.549 158.932 143.195 153.315 139.204L151.934 135.018C151.934 135.018 170.902 147.186 171.639 148.257C171.639 148.354 171.731 148.354 171.731 148.257C171.823 147.965 170.994 145.044 170.166 141.929C169.245 138.522 168.232 135.018 168.232 135.018L169.889 136.575L179.097 145.044L184.162 149.717L184.53 138.912C184.53 138.912 198.803 154.681 199.816 156.142C200.828 157.602 198.434 143.389 198.434 143.389C198.434 143.389 205.248 153.124 209.392 159.549C211.234 162.372 212.523 164.513 212.615 165.097C212.799 166.168 212.523 161.885 212.247 158.283C212.062 155.947 211.878 154 211.878 154L216.206 156.823L221.823 160.522L231.952 167.239C231.952 167.239 230.755 163.443 226.795 157.796C226.151 156.92 225.414 155.947 224.677 154.876C218.6 147.089 207.827 136.673 189.595 127.425C179.374 122.265 169.061 120.027 159.484 119.54L150.644 112.531C150.644 112.531 172.836 111.558 173.941 112.044C175.046 112.531 164.18 102.991 164.18 102.991L185.083 105.912L179.742 96.7611C179.742 96.7611 199.908 101.628 201.473 102.212C203.038 102.796 193.646 92.3805 193.646 92.3805C193.646 92.3805 215.654 100.85 216.851 102.212C218.048 103.478 210.497 93.354 210.497 93.354L234.07 92.7699C234.622 92.6726 217.219 78.5575 178.453 84.3009ZM119.153 125.965C119.245 125.965 119.245 125.965 119.245 125.965H119.153ZM119.797 126.743C119.889 126.646 119.889 126.646 119.981 126.549C119.981 126.549 120.074 126.549 120.074 126.646C119.981 126.646 119.889 126.646 119.797 126.743ZM153.591 119.54C140.147 119.832 128.913 123.239 122.836 125.478C122.283 125.673 121.823 125.867 121.363 126.062C121.086 126.062 120.81 125.965 120.626 125.965C120.718 125.867 120.81 125.867 120.81 125.77C120.81 125.77 120.442 125.77 119.889 125.867C119.705 125.867 119.521 125.867 119.429 125.77C120.534 125.283 121.639 124.797 122.744 124.31C135.727 119.15 146.685 118.858 153.591 119.54Z" fill="#219D57"/>
        <path d="M153.683 363C153.683 359.788 152.854 356.673 151.381 353.655C145.396 356.867 139.411 359.885 133.425 363H153.683Z" fill="#ECBD60"/>
        <path d="M119.612 332.628C115.008 331.46 110.036 330.681 104.787 330.292C104.235 330.292 103.774 330.195 103.222 330.195C101.472 330.097 99.7229 330.097 97.9733 330.097C90.6069 330.097 83.6087 330.973 77.2551 332.434C56.8132 337.301 42.3564 349.177 42.3564 363H133.425C139.41 359.982 145.395 356.867 151.38 353.655C146.684 344.115 134.898 336.425 119.612 332.628Z" fill="#ECBD60"/>
    </mask>
    <g mask="url(#mask0_140_3)">
        <rect width="250" height="363.004" fill="url(#paint0_linear_140_3)"/>
    </g>
    <defs>
        <linearGradient id="paint0_linear_140_3" x1="125" y1="0" x2="125" y2="363.004" gradientUnits="userSpaceOnUse">
            <stop offset="0.0260417" stop-color="#B45739"/>
            <stop offset="0.276042" stop-color="#5B186C"/>
            <stop offset="1" stop-color="#6C185F"/>
        </linearGradient>
    </defs>
</svg>
